PathFileType	4	(X/Y/Z)	C:/Users/beibeiliu/ov580/test_trc\sequence.35_training_dense_left.trc
DataRate	CameraRate	NumFrames	NumMarkers	Units	OrigDataRate	OrigDataStartFrame	OrigNumFrames
120	120	13	19	mm	120	71	283
Frame#	Time	ThumbCMC			ThumbMCP			ThumbIP			ThumbTip			IndexMCP			IndexPIP			IndexTip			MiddleMCP			MiddlePIP			MiddleTip			RingMCP			RingPIP			RingTip			PinkyMCP			PinkyPIP			PinkyTip			BackHand1			BackHand2			BackHand3	
		X0	Y0	Z0	X1	Y1	Z1	X2	Y2	Z2	X3	Y3	Z3	X4	Y4	Z4	X5	Y5	Z5	X6	Y6	Z6	X7	Y7	Z7	X8	Y8	Z8	X9	Y9	Z9	X10	Y10	Z10	X11	Y11	Z11	X12	Y12	Z12	X13	Y13	Z13	X14	Y14	Z14	X15	Y15	Z15	X16	Y16	Z16	X17	Y17	Z17	X18	Y18	Z18	
70	0.583333	-149.627	10.5694	-42.5289	-137.794	-2.74417	-65.0663	-127.173	-8.63934	-86.8156	-123.038	-18.0133	-106.755	-169.207	13.7961	-107.21	-159.109	0.449206	-125.819	-144.586	-28.4356	-126.807	-191.793	4.70755	-107.32	-186.379	-11.5277	-130.819	-161.677	-30.6553	-126.435	-207.524	-10.0169	-95.26	-195.783	-20.9359	-121.674	-173.771	-38.4293	-117.987	-215.723	-25.7001	-83.7912	-211.746	-35.3174	-103.888	-184.91	-41.9113	-110.741	-205.445	-3.58219	-52.4594	-198.195	0.724708	-26.3098	-184.291	16.3174	-44.4435	
71	0.591667	-148.937	13.9553	-37.7355	-131.612	2.21788	-54.927	-126.615	-4.6287	-78.0657	-118.136	-13.2683	-98.2946	-169.739	13.1016	-99.0372	-155.013	-1.40928	-117.877	-139.118	-24.6731	-115.746	-190.245	6.86808	-99.5731	-178.789	-7.40084	-123.599	-154.489	-29.608	-113.686	-202.026	-6.76332	-92.0155	-194.688	-17.2089	-112.517	-168.328	-35.6185	-108.437	-209.435	-24.2079	-73.0074	-204.248	-31.5408	-98.1996	-179.001	-39.5012	-104.342	-202.141	-1.76778	-47.1675	-199.129	1.48178	-20.5809	-181.153	21.0808	-39.0366	
72	0.6	-147.363	17.059	-24.7797	-131.894	6.01215	-47.6997	-122.064	2.13249	-69.7855	-119.77	-7.3025	-90.0698	-169.026	17.4772	-91.2005	-156.422	2.89711	-109.942	-137.115	-16.226	-107.936	-190.298	6.64318	-94.6178	-176.67	-10.4554	-114.86	-154.306	-26.8617	-103.439	-201.391	-6.21985	-84.0215	-188.413	-16.3004	-106.875	-163.361	-29.5839	-99.6588	-205.212	-19.6259	-67.8323	-202.491	-29.4997	-91.1377	-177.96	-39.7778	-97.1757	-202.79	-0.641838	-36.5165	-198.052	3.49866	-9.98279	-183.272	20.6547	-28.5739	
73	0.608333	-150.516	20.2861	-16.1088	-136.034	10.764	-42.4275	-125.028	6.35951	-65.1868	-116.084	-0.447789	-80.7865	-168.531	23.0406	-80.7768	-152.42	9.83395	-101.739	-135.268	-13.8546	-97.9174	-187.748	11.5793	-84.7899	-177.178	-3.45163	-106.795	-150.587	-22.2758	-92.2177	-199.074	-2.59685	-74.5761	-184.582	-13.3873	-98.541	-161.403	-26.7762	-89.9568	-205.75	-18.7779	-64.1131	-199.76	-29.5125	-84.7247	-172.733	-31.6969	-87.2273	-199.759	2.62319	-31.8154	-201.167	0.349792	-7.02583	-185.137	22.1441	-22.565	
74	0.616667	-154.51	23.3218	-8.94981	-133.65	17.7121	-32.7514	-125.612	12.573	-56.5935	-115.292	8.04369	-72.1316	-169.964	25.6636	-72.5735	-154.8	12.9821	-92.2138	-132.051	-3.85774	-89.9065	-189.256	14.2038	-78.7599	-175.251	-0.284519	-98.2288	-148.869	-13.2566	-87.2062	-197.831	0.0656357	-65.7115	-184.398	-12.772	-91.6294	-163.46	-20.8903	-84.4839	-205.324	-19.3299	-53.9877	-199.375	-23.093	-74.9814	-173.495	-26.9796	-80.2435	-200.751	-0.94948	-20.1688	-199.72	5.72295	3.93854	-186.197	25.4122	-12.6117	
75	0.625	-154.347	30.55	-0.473797	-136.459	22.1382	-23.7779	-125.961	21.161	-43.4999	-116.425	15.1464	-61.6585	-174.204	29.0636	-63.5511	-154.721	16.8842	-82.8645	-131.432	5.08502	-80.9595	-190.595	18.0229	-67.6924	-175.988	4.23641	-89.8523	-147.367	-8.72733	-75.5982	-199.759	-0.558147	-59.0881	-184.637	-4.68837	-82.0212	-157.86	-17.5256	-73.4564	-201.683	-15.4634	-43.7878	-198.76	-22.3397	-67.4008	-172.15	-21.1837	-73.5769	-200.191	5.74673	-16.1847	-199.764	6.61702	14.378	-190.522	26.6492	-0.654024	
76	0.633333	-155.87	35.4222	7.11201	-136.204	29.1846	-12.7184	-129.219	24.7186	-34.9787	-116.226	22.452	-52.9085	-173.028	38.2341	-51.8073	-154.393	27.6722	-73.4338	-134.149	10.6289	-71.271	-191.444	21.377	-60.2028	-175.802	8.45923	-81.2832	-148.02	-1.01271	-70.6821	-198.187	6.19999	-48.9601	-184.012	-4.49408	-73.814	-160.645	-11.9679	-67.2731	-203.181	-14.202	-36.715	-197.277	-18.2233	-58.8648	-168.196	-18.5906	-65.9185	-199.9	5.92833	-2.59241	-203.608	4.97757	19.2052	-193.096	29.6153	4.34585	
77	0.641667	-159.939	36.1044	19.6599	-139.813	31.8751	-3.92069	-126.688	31.0392	-23.912	-117.419	27.2927	-41.0445	-175.574	38.736	-43.1076	-155.384	30.6065	-63.8886	-131.88	14.4992	-60.9086	-191.485	26.1158	-49.0197	-176.401	16.6619	-71.5132	-149.4	2.12542	-60.4095	-198.818	7.07061	-41.4502	-183.198	-1.13429	-64.1573	-157.317	-7.22049	-57.2621	-202.131	-9.10904	-29.0222	-194.005	-13.5327	-51.576	-171.475	-12.2467	-55.0147	-203.862	7.97828	4.40765	-202.32	6.83356	30.0495	-194.748	31.278	14.0819	
78	0.65	-158.242	42.3477	29.5491	-139.973	36.3461	3.55538	-128.854	34.1284	-14.36	-120.301	29.7392	-32.856	-174.22	42.2302	-35.7254	-156.239	36.7018	-53.8098	-133.223	22.0083	-51.0886	-193.116	25.1753	-37.7282	-172.412	18.3163	-63.3241	-146.92	9.75992	-51.6736	-198.68	10.3474	-29.5085	-184.867	2.56111	-55.9196	-160.429	-1.57233	-51.2131	-199.209	-7.43804	-16.7322	-192.005	-10.3662	-43.6534	-169.208	-9.96569	-47.5611	-199.806	11.3681	15.3056	-201.487	10.0645	37.1397	-191.968	35.6543	24.468	
79	0.658333	-160.48	43.7869	36.427	-139.789	40.8438	14.08	-126.912	40.8705	-6.2056	-118.388	36.0937	-24.4033	-176.163	44.2937	-25.3512	-153.913	35.5485	-45.011	-132.06	27.0759	-41.8274	-192.704	28.387	-31.4632	-175.64	24.5156	-54.1605	-148.614	11.6993	-42.4101	-199.491	14.5088	-26.1506	-184.437	6.52594	-46.7488	-158.87	4.37728	-41.7145	-199.996	-4.69435	-10.3409	-194.89	-9.06752	-33.8292	-170.216	-6.79824	-38.6553	-200.768	11.3439	23.3955	-203.532	14.283	44.973	-195.238	38.1609	32.4681	
80	0.666667	-162.641	45.9243	44.7994	-139.301	46.3041	25.8027	-131.199	43.7705	2.47184	-120.578	39.3101	-13.9715	-175.987	48.7123	-20.8153	-154.231	39.5252	-36.6034	-129.265	31.6793	-29.6406	-192.753	31.8864	-23.7237	-173.613	24.8033	-46.5554	-147.776	18.0838	-33.0163	-197.82	18.0254	-15.1337	-185.229	14.7147	-37.6156	-156.363	10.4638	-30.0472	-201.749	-4.67396	-5.26575	-193.239	-2.26396	-25.0823	-168.65	-3.64113	-31.0131	-204.68	14.1529	25.9667	-201.764	17.3379	53.8835	-195.455	40.6463	41.783	
81	0.675	-160.993	52.6702	54.7758	-140.111	49.8239	32.1381	-129.809	49.8599	11.3976	-119.46	44.6577	-5.16271	-176.133	53.4301	-9.37542	-157.464	44.6804	-27.439	-131.369	32.2308	-20.566	-191.203	39.1501	-16.1788	-171.965	33.3402	-38.2897	-146.813	19.1673	-22.7243	-198.034	19.2873	-7.68253	-184.977	15.3487	-30.6547	-154.59	14.1788	-20.9909	-199.314	3.38347	0.913639	-191.509	1.6271	-19.3497	-165.264	-1.24363	-22.8023	-203.56	16.0651	36.2436	-203.435	14.942	60.1934	-195.621	42.4151	48.7013	
82	0.683333	-162.615	55.2025	62.6866	-142.194	52.1447	44.0076	-129.885	52.1673	19.3831	-121.825	48.2648	1.49947	-175.919	59.3794	-1.79831	-155.562	52.3285	-18.5603	-132.522	37.3413	-13.2963	-191.938	41.8329	-4.92408	-169.629	35.6577	-29.3254	-145.708	24.7434	-12.2685	-197.951	23.921	-1.25314	-182.709	18.7171	-22.6445	-155.253	19.8108	-13.249	-197.763	5.19049	13.1009	-191.228	3.22187	-11.9959	-166.629	3.935	-14.0105	-202.938	23.5308	41.6488	-203.863	21.4293	68.831	-197.817	44.6016	59.0707	
